<?xml version="1.0" standalone="no"?>
<!DOCTYPE svg PUBLIC "-//W3C//DTD SVG 20010904//EN"
 "http://www.w3.org/TR/2001/REC-SVG-20010904/DTD/svg10.dtd">
<svg version="1.0" xmlns="http://www.w3.org/2000/svg"
 width="100.000000pt" height="100.000000pt" viewBox="0 0 100.000000 100.000000"
 preserveAspectRatio="xMidYMid meet">
<metadata>
Created by potrace 1.10, written by Peter Selinger 2001-2011
</metadata>
<g transform="translate(0.000000,100.000000) scale(0.100000,-0.100000)"
fill="#FFFFFF" stroke="none">
<path d="M290 809 c-63 -50 -123 -97 -133 -104 -16 -11 -20 -40 -30 -225 -9
-144 -9 -214 -2 -220 5 -4 63 -40 129 -79 l119 -72 71 6 c187 15 163 6 304
123 70 58 130 111 134 116 4 6 8 71 8 144 l0 134 -56 94 c-31 52 -61 97 -66
100 -11 7 -328 74 -348 74 -8 -1 -67 -42 -130 -91z"/>
</g>
</svg>
