 <svg  version="1.0" xmlns="http://www.w3.org/2000/svg"  width="900.000000pt" height="297.000000pt" viewBox="0 0 450.000000 150.000000"  preserveAspectRatio="xMidYMid meet">  <g transform="translate(0.000000,297.000000) scale(0.100000,-0.100000)" fill="#ffffff" stroke="none"> <path d="M3123 2917 l-63 -21 0 -100 c1 -132 17 -527 23 -532 2 -2 29 1 60 7 l57 12 0 51 c0 28 -5 90 -11 139 -6 48 -9 92 -7 98 2 6 33 -56 68 -137 71 -162 64 -155 168 -167 l52 -6 0 319 c0 251 -3 318 -12 315 -7 -2 -33 -9 -57 -15 l-44 -12 5 -160 c4 -116 3 -156 -5 -142 -6 10 -44 95 -84 189 -40 93 -77 172 -81 176 -4 3 -35 -3 -69 -14z"/> <path d="M3573 2933 c-24 -5 -29 -15 -37 -88 -11 -87 -25 -480 -19 -523 5 -35 9 -42 34 -46 16 -4 43 -9 59 -12 l30 -6 0 82 c0 112 11 114 110 15 76 -76 80 -78 98 -62 11 10 31 39 46 66 l26 49 -87 68 c-49 37 -90 69 -93 72 -3 2 48 55 114 118 107 102 117 115 105 131 -33 45 -64 73 -79 73 -9 0 -54 -45 -100 -100 -45 -55 -88 -100 -95 -100 -16 0 -25 55 -25 153 0 112 -10 125 -87 110z"/> <path d="M4277 2918 l-59 -20 -100 -207 c-55 -113 -115 -238 -133 -278 l-34 -71 71 -37 c40 -22 74 -33 79 -28 5 5 33 62 62 128 l54 120 45 3 45 3 7 -138 c4 -75 9 -139 11 -142 6 -5 68 15 115 38 33 16 35 19 32 61 -4 52 -63 371 -93 501 -12 51 -26 89 -32 88 -7 0 -38 -10 -70 -21z m29 -256 l7 -42 -37 0 c-20 0 -36 4 -36 9 0 5 9 31 21 58 23 54 33 48 45 -25z"/> <path d="M2679 2859 c-91 -107 -98 -127 -105 -320 l-7 -164 61 -53 c75 -65 101 -74 174 -65 l56 8 77 95 76 95 -3 130 c-4 116 -7 138 -34 204 l-29 74 -83 28 c-46 16 -92 31 -102 34 -14 4 -34 -12 -81 -66z m157 -213 l37 -68 -18 -32 c-64 -109 -63 -108 -95 -91 -40 21 -49 42 -52 123 -3 70 -3 71 37 111 21 23 42 38 46 33 4 -4 24 -38 45 -76z"/> <path d="M2133 2900 c-17 -10 -36 -27 -41 -37 -6 -10 -17 -117 -26 -238 -9 -121 -19 -241 -23 -267 l-6 -48 57 -26 c32 -14 60 -23 64 -20 3 4 9 60 13 125 9 166 17 174 68 76 18 -36 36 -65 40 -65 4 0 27 27 51 60 24 33 47 60 51 60 4 0 10 -48 14 -107 4 -60 12 -113 17 -120 8 -10 77 -27 113 -28 13 0 8 110 -16 369 -10 115 -19 213 -19 218 0 10 -31 22 -76 31 -32 6 -32 6 -48 -56 -8 -34 -24 -87 -34 -117 l-19 -55 -15 30 c-8 17 -32 76 -53 133 -42 113 -51 120 -112 82z"/> <path d="M637 2812 c-113 -131 -227 -281 -227 -298 0 -29 -31 -25 -99 15 -38 23 -76 41 -83 41 -12 0 -103 -88 -167 -162 -36 -41 -41 -88 -26 -232 22 -196 17 -185 88 -242 70 -57 116 -84 146 -84 11 0 36 14 56 31 47 41 65 34 65 -28 0 -27 8 -63 18 -81 9 -18 73 -82 142 -143 l125 -110 180 6 c99 3 222 8 274 11 91 6 95 7 135 44 22 21 95 106 161 188 132 167 120 161 197 100 37 -29 38 -29 70 -12 18 9 61 35 96 58 61 40 63 42 87 119 57 179 87 309 77 331 -13 28 -152 176 -202 216 l-40 32 -75 -41 c-41 -23 -80 -41 -88 -41 -15 0 -48 68 -88 175 -12 33 -26 65 -33 71 -17 18 -290 104 -376 120 -41 7 -132 13 -202 14 l-127 0 -84 -98z m218 -327 c54 -47 104 -85 111 -85 8 0 54 38 103 85 50 47 97 85 105 85 20 0 153 -125 161 -151 5 -14 -15 -46 -74 -119 l-81 -101 50 -93 c27 -51 50 -100 50 -110 0 -21 -91 -80 -202 -129 -116 -51 -144 -55 -199 -27 -61 31 -179 113 -207 142 l-22 25 46 92 c32 63 44 98 40 115 -3 13 -35 56 -72 97 -36 40 -70 81 -74 90 -7 12 7 34 61 93 39 42 78 76 88 76 9 0 62 -38 116 -85z"/> <path d="M2101 2144 l-91 -45 0 -42 c0 -115 33 -513 43 -523 7 -6 31 -14 55 -18 l42 -6 -6 112 -7 112 27 -22 c35 -27 44 -23 136 65 l70 65 -5 72 c-14 184 -10 172 -73 215 -100 67 -89 66 -191 15z m117 -146 c20 -26 25 -114 8 -147 -19 -36 -27 -38 -48 -13 -26 29 -36 55 -43 115 l-7 57 40 0 c22 0 44 -6 50 -12z"/> <path d="M2475 2173 c-75 -26 -74 -20 -59 -268 8 -121 17 -263 21 -315 9 -107 4 -103 96 -79 l37 10 0 134 0 135 63 0 c34 0 73 3 86 7 l23 6 -3 -144 -4 -143 43 -9 c73 -14 72 -17 72 160 -1 212 -16 473 -28 485 -6 6 -29 8 -57 4 l-47 -7 7 -108 c5 -75 4 -110 -4 -115 -16 -11 -165 -26 -173 -18 -4 4 -10 59 -14 122 -4 63 -10 124 -13 136 -6 20 -8 21 -46 7z"/> <path d="M3015 2128 c-92 -101 -104 -135 -111 -329 l-6 -164 68 -57 69 -58 75 1 75 0 79 100 78 100 -4 132 c-4 115 -9 141 -33 203 l-29 71 -96 31 c-53 18 -99 32 -102 32 -4 0 -32 -28 -63 -62z m149 -216 c20 -35 36 -68 36 -72 0 -21 -77 -130 -91 -130 -40 0 -62 35 -70 106 -8 78 5 120 49 155 30 23 30 23 76 -59z"/> <path d="M3863 2180 c-12 -5 -27 -18 -33 -29 -11 -22 -50 -427 -50 -533 0 -77 4 -81 83 -93 l47 -7 0 336 c0 356 2 345 -47 326z"/> <path d="M4277 2168 l-58 -20 -66 -131 c-36 -73 -97 -196 -134 -275 l-68 -143 62 -39 c34 -22 67 -40 73 -40 6 0 38 59 72 130 l61 130 45 0 46 0 0 -104 c0 -57 3 -118 6 -136 7 -31 8 -32 46 -26 22 4 55 13 74 21 32 13 34 17 34 59 0 47 -55 353 -91 509 -12 49 -26 87 -32 86 -7 0 -38 -10 -70 -21z m29 -256 l7 -42 -37 0 c-41 0 -44 9 -22 61 26 63 40 58 52 -19z"/> <path d="M3452 2127 c-56 -31 -90 -57 -87 -64 2 -7 9 -102 15 -210 13 -254 18 -291 38 -302 10 -5 52 -16 95 -25 l78 -16 68 50 c74 54 81 68 81 172 l0 47 -45 7 c-25 3 -45 11 -45 17 0 5 16 29 35 53 42 51 56 85 50 121 -2 16 -7 45 -10 66 -5 31 -16 45 -72 87 -36 28 -75 50 -87 50 -12 0 -63 -24 -114 -53z m127 -131 c15 -18 -5 -83 -30 -96 -14 -8 -21 -8 -24 2 -9 25 -23 113 -19 120 6 9 60 -10 73 -26z m7 -297 c8 -13 -25 -69 -41 -69 -11 0 -15 11 -15 38 0 21 3 41 6 44 7 8 43 -2 50 -13z"/> </g> </svg> 