<?xml version="1.0" standalone="no"?>
<!DOCTYPE svg PUBLIC "-//W3C//DTD SVG 20010904//EN"
 "http://www.w3.org/TR/2001/REC-SVG-20010904/DTD/svg10.dtd">
<svg version="1.0" xmlns="http://www.w3.org/2000/svg"
 width="650.000000pt" height="110.000000pt" viewBox="0 0 450.000000 60.000000"
 preserveAspectRatio="xMidYMid meet">
<metadata>
Created by potrace 1.10, written by Peter Selinger 2001-2011
</metadata>
<g transform="translate(0.000000,110.000000) scale(0.100000,-0.100000)"
fill="#FFFFFF" stroke="none">
<path d="M172 967 c-25 -13 -44 -30 -47 -42 -2 -11 -9 -90 -15 -175 -6 -85
-13 -178 -16 -207 l-6 -52 41 -20 c55 -29 61 -27 61 17 0 22 3 73 6 115 8 87
16 88 54 7 13 -27 27 -50 30 -50 4 0 25 25 46 56 22 31 40 50 41 43 1 -8 5
-53 8 -101 l7 -86 49 -12 c28 -7 52 -11 54 -9 8 8 -31 469 -40 478 -5 5 -26
12 -45 16 l-35 6 -24 -85 c-13 -46 -27 -90 -31 -96 -4 -7 -23 34 -44 92 -20
57 -40 108 -44 114 -5 8 -20 5 -50 -9z"/>
<path d="M1315 971 l-50 -18 1 -64 c1 -35 5 -149 9 -252 l7 -189 47 7 c25 4
49 10 53 13 4 4 0 58 -8 121 -8 62 -13 115 -11 118 2 2 28 -52 57 -119 29 -68
53 -124 54 -124 0 -1 29 -5 64 -9 l62 -7 0 255 0 255 -47 -12 -48 -12 3 -115
c2 -63 6 -123 9 -134 14 -53 -19 14 -77 153 -34 83 -65 152 -69 151 -3 0 -28
-9 -56 -18z"/>
<path d="M1674 983 c-19 -4 -22 -13 -27 -91 -15 -200 -20 -419 -10 -425 5 -4
29 -9 51 -13 l42 -7 1 59 c1 103 6 104 83 25 37 -39 71 -71 74 -71 13 1 74
103 65 109 -8 5 -129 98 -143 109 -3 2 15 22 40 45 25 22 69 63 98 90 l53 49
-33 38 c-18 21 -38 39 -44 39 -5 1 -43 -40 -84 -90 -85 -105 -88 -105 -89 28
-1 116 -5 120 -77 106z"/>
<path d="M2247 972 l-49 -16 -75 -151 c-42 -82 -90 -182 -108 -221 l-33 -71
55 -32 c30 -17 58 -29 62 -27 4 3 27 50 52 105 l44 101 38 0 37 0 0 -54 c0
-29 3 -80 6 -113 l6 -60 62 23 c53 19 61 25 59 46 -10 93 -89 488 -97 487 -6
0 -33 -8 -59 -17z m19 -199 l7 -43 -33 0 c-21 0 -31 4 -27 13 2 6 10 29 18 49
15 45 25 39 35 -19z"/>
<path d="M2505 953 c-38 -19 -71 -36 -72 -37 -4 -3 25 -447 30 -452 3 -3 23
-8 44 -11 l38 -5 -4 89 -3 88 20 -18 c25 -23 32 -19 107 52 l56 53 -6 98 -7
98 -60 41 c-33 23 -63 41 -66 41 -4 -1 -38 -17 -77 -37z m108 -161 c7 -43 5
-58 -8 -79 l-17 -25 -23 23 c-17 17 -26 41 -30 82 l-7 58 38 -3 c39 -3 39 -3
47 -56z"/>
<path d="M2793 972 c-31 -12 -43 -22 -43 -37 0 -38 30 -498 32 -501 2 -1 24 3
51 9 l47 10 0 109 0 108 54 0 c30 0 62 3 72 7 16 6 17 -2 10 -109 l-7 -115 32
-7 c78 -15 73 -34 65 227 -4 127 -10 247 -13 264 -5 32 -6 33 -47 27 -22 -4
-42 -8 -44 -10 -2 -1 1 -40 6 -86 7 -58 7 -85 0 -89 -15 -9 -138 -22 -145 -15
-3 3 -8 55 -11 116 -2 60 -8 109 -11 109 -3 -1 -25 -9 -48 -17z"/>
<path d="M3225 924 c-68 -77 -74 -98 -74 -264 l-1 -115 55 -48 c53 -47 56 -48
112 -45 l58 3 62 78 63 79 0 99 c0 83 -4 109 -26 163 l-26 65 -76 25 c-43 15
-80 26 -83 26 -4 0 -33 -30 -64 -66z m133 -155 l33 -60 -32 -52 c-17 -29 -33
-54 -35 -55 -1 -2 -16 4 -32 13 -27 16 -30 24 -35 84 -5 64 -4 67 26 99 17 17
33 32 36 32 4 0 21 -27 39 -61z"/>
<path d="M3597 943 l-79 -45 6 -42 c3 -22 8 -114 12 -203 4 -100 11 -166 18
-172 6 -4 41 -14 79 -22 l67 -13 58 41 57 40 3 65 3 65 -40 9 -40 9 40 52 c40
50 40 52 33 112 -6 59 -8 62 -60 101 -30 22 -60 42 -66 44 -7 2 -48 -16 -91
-41z m72 -94 c30 -11 32 -14 27 -43 -8 -37 -32 -64 -45 -51 -9 10 -26 105 -18
105 2 0 19 -5 36 -11z m15 -245 c20 -8 20 -18 -1 -50 -19 -29 -33 -17 -33 29
0 28 6 32 34 21z"/>
<path d="M3917 978 c-33 -12 -32 -7 -51 -248 -23 -279 -26 -256 34 -269 28 -6
53 -11 55 -11 3 0 5 122 5 270 0 149 -3 270 -7 269 -5 0 -20 -5 -36 -11z"/>
<path d="M4255 972 l-50 -17 -107 -215 c-58 -118 -107 -218 -107 -222 -1 -6
100 -68 111 -68 3 0 27 47 53 105 l48 105 39 0 38 0 0 -110 c0 -77 3 -110 12
-110 6 0 35 8 65 17 46 14 53 20 53 42 -1 52 -85 484 -95 487 -6 1 -32 -5 -60
-14z m19 -204 c7 -37 6 -38 -24 -38 -35 0 -36 5 -13 61 18 45 26 40 37 -23z"/>
<path d="M700 903 c-35 -43 -65 -80 -66 -81 -2 -2 -17 4 -34 14 l-30 19 -40
-45 c-35 -39 -40 -50 -35 -80 3 -19 5 -48 5 -64 0 -19 12 -40 35 -63 34 -34
44 -36 86 -19 13 6 16 2 12 -16 -3 -18 8 -34 56 -75 l60 -53 88 1 c126 2 134
5 193 79 29 36 54 67 56 69 2 2 15 -1 28 -8 21 -12 29 -10 64 9 37 21 40 26
57 101 l18 80 -43 44 c-49 50 -59 53 -96 29 -29 -19 -25 -22 -50 40 -19 48
-22 50 -89 73 -46 15 -92 23 -140 23 l-71 0 -64 -77z m122 -90 l38 -37 38 37
c21 20 42 37 48 37 12 0 64 -52 64 -65 0 -5 -15 -24 -32 -43 l-33 -33 22 -41
c13 -22 20 -44 17 -49 -2 -4 -33 -22 -67 -38 l-62 -30 -53 31 c-30 17 -56 36
-58 43 -3 7 4 28 15 47 l21 34 -30 35 c-35 41 -37 56 -8 86 29 31 36 29 80
-14z"/>
</g>
</svg>
