<?xml version="1.0" standalone="no"?>
<!DOCTYPE svg PUBLIC "-//W3C//DTD SVG 20010904//EN"
 "http://www.w3.org/TR/2001/REC-SVG-20010904/DTD/svg10.dtd">
<svg version="1.0" xmlns="http://www.w3.org/2000/svg"
 width="120.000000pt" height="101.000000pt" viewBox="0 0 120.000000 101.000000"
 preserveAspectRatio="xMidYMid meet">
<metadata>
Created by potrace 1.10, written by Peter Selinger 2001-2011
</metadata>
<g transform="translate(0.000000,101.000000) scale(0.100000,-0.100000)"
fill="#FFFFFF" stroke="none">
<path d="M358 785 c-49 -58 -88 -111 -88 -120 0 -20 -4 -19 -56 11 l-45 27
-50 -49 c-72 -70 -73 -72 -59 -185 l12 -99 48 -40 c53 -45 78 -49 105 -20 27
30 35 25 36 -22 0 -41 4 -47 80 -112 l79 -70 147 3 c80 1 156 6 168 11 11 4
56 53 99 109 43 56 80 101 83 101 2 0 17 -10 34 -22 l30 -22 45 24 c25 14 51
32 59 40 11 13 65 200 65 227 0 12 -129 143 -141 143 -5 0 -27 -11 -50 -25
-22 -14 -43 -24 -48 -21 -4 3 -20 36 -35 75 l-27 70 -110 36 c-95 30 -123 35
-202 34 l-92 -1 -87 -103z m166 -135 c29 -27 57 -50 62 -50 6 0 32 23 59 50
27 28 54 50 59 50 13 0 96 -81 96 -93 0 -5 -20 -32 -45 -60 -25 -29 -45 -55
-45 -59 0 -4 14 -30 30 -57 17 -27 28 -55 25 -63 -8 -21 -179 -102 -200 -95
-52 21 -155 90 -155 105 0 9 11 35 25 57 31 51 31 66 -1 96 -14 13 -35 36 -46
52 l-19 27 38 45 c21 24 44 44 51 45 7 0 37 -22 66 -50z"/>
</g>
</svg>
