<svg width="24" height="16" viewBox="0 0 24 16" fill="none" xmlns="http://www.w3.org/2000/svg">
<path d="M9.71427 11.4286L15.6457 8.00001L9.71427 4.57144V11.4286ZM22.9257 2.48001C23.0743 3.01715 23.1771 3.73715 23.2457 4.65144C23.3257 5.56572 23.36 6.35429 23.36 7.04001L23.4286 8.00001C23.4286 10.5029 23.2457 12.3429 22.9257 13.52C22.64 14.5486 21.9771 15.2114 20.9486 15.4972C20.4114 15.6457 19.4286 15.7486 17.92 15.8172C16.4343 15.8972 15.0743 15.9314 13.8171 15.9314L12 16C7.21141 16 4.22855 15.8172 3.05141 15.4972C2.02284 15.2114 1.35998 14.5486 1.07427 13.52C0.925697 12.9829 0.82284 12.2629 0.754268 11.3486C0.674268 10.4343 0.639982 9.64572 0.639982 8.96001L0.571411 8.00001C0.571411 5.49715 0.754268 3.65715 1.07427 2.48001C1.35998 1.45144 2.02284 0.788579 3.05141 0.502865C3.58855 0.354293 4.57141 0.251436 6.07998 0.182865C7.5657 0.102865 8.9257 0.068579 10.1828 0.068579L12 7.62939e-06C16.7886 7.62939e-06 19.7714 0.182865 20.9486 0.502865C21.9771 0.788579 22.64 1.45144 22.9257 2.48001Z" fill="black"/>
</svg>
